<svg class="rich-terminal" viewBox="0 0 1568 538.0" xmlns="http://www.w3.org/2000/svg">
    <!-- Generated with Rich https://www.textualize.io -->
    <style>

    @font-face {
        font-family: "Fira Code";
        src: local("FiraCode-Regular"),
                url("https://cdnjs.cloudflare.com/ajax/libs/firacode/6.2.0/woff2/FiraCode-Regular.woff2") format("woff2"),
                url("https://cdnjs.cloudflare.com/ajax/libs/firacode/6.2.0/woff/FiraCode-Regular.woff") format("woff");
        font-style: normal;
        font-weight: 400;
    }
    @font-face {
        font-family: "Fira Code";
        src: local("FiraCode-Bold"),
                url("https://cdnjs.cloudflare.com/ajax/libs/firacode/6.2.0/woff2/FiraCode-Bold.woff2") format("woff2"),
                url("https://cdnjs.cloudflare.com/ajax/libs/firacode/6.2.0/woff/FiraCode-Bold.woff") format("woff");
        font-style: bold;
        font-weight: 700;
    }

    .terminal-3165956597-matrix {
        font-family: Fira Code, monospace;
        font-size: 20px;
        line-height: 24.4px;
        font-variant-east-asian: full-width;
    }

    .terminal-3165956597-title {
        font-size: 18px;
        font-weight: bold;
        font-family: arial;
    }

    .terminal-3165956597-r1 { fill: #bd93f9 }
.terminal-3165956597-r2 { fill: #c5c8c6 }
.terminal-3165956597-r3 { fill: #f8f8f2 }
.terminal-3165956597-r4 { fill: #2b2e3b }
.terminal-3165956597-r5 { fill: #bd93f9;font-weight: bold }
.terminal-3165956597-r6 { fill: #1b1e2a }
.terminal-3165956597-r7 { fill: #f8f8f2;font-style: italic; }
.terminal-3165956597-r8 { fill: #e4e5e6;text-decoration: underline; }
.terminal-3165956597-r9 { fill: #ff79c6;font-weight: bold }
    </style>

    <defs>
    <clipPath id="terminal-3165956597-clip-terminal">
      <rect x="0" y="0" width="1548.3999999999999" height="487.0" />
    </clipPath>
    <clipPath id="terminal-3165956597-line-0">
    <rect x="0" y="1.5" width="1549.4" height="24.65"/>
            </clipPath>
<clipPath id="terminal-3165956597-line-1">
    <rect x="0" y="25.9" width="1549.4" height="24.65"/>
            </clipPath>
<clipPath id="terminal-3165956597-line-2">
    <rect x="0" y="50.3" width="1549.4" height="24.65"/>
            </clipPath>
<clipPath id="terminal-3165956597-line-3">
    <rect x="0" y="74.7" width="1549.4" height="24.65"/>
            </clipPath>
<clipPath id="terminal-3165956597-line-4">
    <rect x="0" y="99.1" width="1549.4" height="24.65"/>
            </clipPath>
<clipPath id="terminal-3165956597-line-5">
    <rect x="0" y="123.5" width="1549.4" height="24.65"/>
            </clipPath>
<clipPath id="terminal-3165956597-line-6">
    <rect x="0" y="147.9" width="1549.4" height="24.65"/>
            </clipPath>
<clipPath id="terminal-3165956597-line-7">
    <rect x="0" y="172.3" width="1549.4" height="24.65"/>
            </clipPath>
<clipPath id="terminal-3165956597-line-8">
    <rect x="0" y="196.7" width="1549.4" height="24.65"/>
            </clipPath>
<clipPath id="terminal-3165956597-line-9">
    <rect x="0" y="221.1" width="1549.4" height="24.65"/>
            </clipPath>
<clipPath id="terminal-3165956597-line-10">
    <rect x="0" y="245.5" width="1549.4" height="24.65"/>
            </clipPath>
<clipPath id="terminal-3165956597-line-11">
    <rect x="0" y="269.9" width="1549.4" height="24.65"/>
            </clipPath>
<clipPath id="terminal-3165956597-line-12">
    <rect x="0" y="294.3" width="1549.4" height="24.65"/>
            </clipPath>
<clipPath id="terminal-3165956597-line-13">
    <rect x="0" y="318.7" width="1549.4" height="24.65"/>
            </clipPath>
<clipPath id="terminal-3165956597-line-14">
    <rect x="0" y="343.1" width="1549.4" height="24.65"/>
            </clipPath>
<clipPath id="terminal-3165956597-line-15">
    <rect x="0" y="367.5" width="1549.4" height="24.65"/>
            </clipPath>
<clipPath id="terminal-3165956597-line-16">
    <rect x="0" y="391.9" width="1549.4" height="24.65"/>
            </clipPath>
<clipPath id="terminal-3165956597-line-17">
    <rect x="0" y="416.3" width="1549.4" height="24.65"/>
            </clipPath>
<clipPath id="terminal-3165956597-line-18">
    <rect x="0" y="440.7" width="1549.4" height="24.65"/>
            </clipPath>
    </defs>

    <rect fill="#292929" stroke="rgba(255,255,255,0.35)" stroke-width="1" x="1" y="1" width="1566" height="536" rx="8"/><text class="terminal-3165956597-title" fill="#c5c8c6" text-anchor="middle" x="783" y="27">lazyfeed</text>
            <g transform="translate(26,22)">
            <circle cx="0" cy="0" r="7" fill="#ff5f57"/>
            <circle cx="22" cy="0" r="7" fill="#febc2e"/>
            <circle cx="44" cy="0" r="7" fill="#28c840"/>
            </g>
        
    <g transform="translate(9, 41)" clip-path="url(#terminal-3165956597-clip-terminal)">
    <rect fill="#2b2e3b" x="0" y="1.5" width="12.2" height="24.65" shape-rendering="crispEdges"/><rect fill="#2b2e3b" x="12.2" y="1.5" width="12.2" height="24.65" shape-rendering="crispEdges"/><rect fill="#2b2e3b" x="24.4" y="1.5" width="109.8" height="24.65" shape-rendering="crispEdges"/><rect fill="#2b2e3b" x="134.2" y="1.5" width="1403" height="24.65" shape-rendering="crispEdges"/><rect fill="#2b2e3b" x="1537.2" y="1.5" width="12.2" height="24.65" shape-rendering="crispEdges"/><rect fill="#2b2e3b" x="0" y="25.9" width="12.2" height="24.65" shape-rendering="crispEdges"/><rect fill="#2b2e3b" x="12.2" y="25.9" width="1525" height="24.65" shape-rendering="crispEdges"/><rect fill="#2b2e3b" x="1537.2" y="25.9" width="12.2" height="24.65" shape-rendering="crispEdges"/><rect fill="#2b2e3b" x="0" y="50.3" width="12.2" height="24.65" shape-rendering="crispEdges"/><rect fill="#2b2e3b" x="12.2" y="50.3" width="12.2" height="24.65" shape-rendering="crispEdges"/><rect fill="#353844" x="24.4" y="50.3" width="24.4" height="24.65" shape-rendering="crispEdges"/><rect fill="#353844" x="48.8" y="50.3" width="134.2" height="24.65" shape-rendering="crispEdges"/><rect fill="#353844" x="183" y="50.3" width="1305.4" height="24.65" shape-rendering="crispEdges"/><rect fill="#353844" x="1488.4" y="50.3" width="24.4" height="24.65" shape-rendering="crispEdges"/><rect fill="#2e313e" x="1512.8" y="50.3" width="12.2" height="24.65" shape-rendering="crispEdges"/><rect fill="#2b2e3b" x="1525" y="50.3" width="12.2" height="24.65" shape-rendering="crispEdges"/><rect fill="#2b2e3b" x="1537.2" y="50.3" width="12.2" height="24.65" shape-rendering="crispEdges"/><rect fill="#2b2e3b" x="0" y="74.7" width="12.2" height="24.65" shape-rendering="crispEdges"/><rect fill="#2b2e3b" x="12.2" y="74.7" width="12.2" height="24.65" shape-rendering="crispEdges"/><rect fill="#353844" x="24.4" y="74.7" width="24.4" height="24.65" shape-rendering="crispEdges"/><rect fill="#353844" x="48.8" y="74.7" width="1439.6" height="24.65" shape-rendering="crispEdges"/><rect fill="#353844" x="1488.4" y="74.7" width="24.4" height="24.65" shape-rendering="crispEdges"/><rect fill="#2e313e" x="1512.8" y="74.7" width="12.2" height="24.65" shape-rendering="crispEdges"/><rect fill="#2b2e3b" x="1525" y="74.7" width="12.2" height="24.65" shape-rendering="crispEdges"/><rect fill="#2b2e3b" x="1537.2" y="74.7" width="12.2" height="24.65" shape-rendering="crispEdges"/><rect fill="#2b2e3b" x="0" y="99.1" width="12.2" height="24.65" shape-rendering="crispEdges"/><rect fill="#2b2e3b" x="12.2" y="99.1" width="12.2" height="24.65" shape-rendering="crispEdges"/><rect fill="#353844" x="24.4" y="99.1" width="24.4" height="24.65" shape-rendering="crispEdges"/><rect fill="#353844" x="48.8" y="99.1" width="1439.6" height="24.65" shape-rendering="crispEdges"/><rect fill="#353844" x="1488.4" y="99.1" width="24.4" height="24.65" shape-rendering="crispEdges"/><rect fill="#2e313e" x="1512.8" y="99.1" width="12.2" height="24.65" shape-rendering="crispEdges"/><rect fill="#2b2e3b" x="1525" y="99.1" width="12.2" height="24.65" shape-rendering="crispEdges"/><rect fill="#2b2e3b" x="1537.2" y="99.1" width="12.2" height="24.65" shape-rendering="crispEdges"/><rect fill="#2b2e3b" x="0" y="123.5" width="12.2" height="24.65" shape-rendering="crispEdges"/><rect fill="#2b2e3b" x="12.2" y="123.5" width="12.2" height="24.65" shape-rendering="crispEdges"/><rect fill="#353844" x="24.4" y="123.5" width="24.4" height="24.65" shape-rendering="crispEdges"/><rect fill="#353844" x="48.8" y="123.5" width="390.4" height="24.65" shape-rendering="crispEdges"/><rect fill="#353844" x="439.2" y="123.5" width="658.8" height="24.65" shape-rendering="crispEdges"/><rect fill="#353844" x="1098" y="123.5" width="390.4" height="24.65" shape-rendering="crispEdges"/><rect fill="#353844" x="1488.4" y="123.5" width="24.4" height="24.65" shape-rendering="crispEdges"/><rect fill="#2e313e" x="1512.8" y="123.5" width="12.2" height="24.65" shape-rendering="crispEdges"/><rect fill="#2b2e3b" x="1525" y="123.5" width="12.2" height="24.65" shape-rendering="crispEdges"/><rect fill="#2b2e3b" x="1537.2" y="123.5" width="12.2" height="24.65" shape-rendering="crispEdges"/><rect fill="#2b2e3b" x="0" y="147.9" width="12.2" height="24.65" shape-rendering="crispEdges"/><rect fill="#2b2e3b" x="12.2" y="147.9" width="12.2" height="24.65" shape-rendering="crispEdges"/><rect fill="#353844" x="24.4" y="147.9" width="24.4" height="24.65" shape-rendering="crispEdges"/><rect fill="#353844" x="48.8" y="147.9" width="1439.6" height="24.65" shape-rendering="crispEdges"/><rect fill="#353844" x="1488.4" y="147.9" width="24.4" height="24.65" shape-rendering="crispEdges"/><rect fill="#1b1e2a" x="1512.8" y="147.9" width="12.2" height="24.65" shape-rendering="crispEdges"/><rect fill="#2b2e3b" x="1525" y="147.9" width="12.2" height="24.65" shape-rendering="crispEdges"/><rect fill="#2b2e3b" x="1537.2" y="147.9" width="12.2" height="24.65" shape-rendering="crispEdges"/><rect fill="#2b2e3b" x="0" y="172.3" width="12.2" height="24.65" shape-rendering="crispEdges"/><rect fill="#2b2e3b" x="12.2" y="172.3" width="12.2" height="24.65" shape-rendering="crispEdges"/><rect fill="#353844" x="24.4" y="172.3" width="24.4" height="24.65" shape-rendering="crispEdges"/><rect fill="#353844" x="48.8" y="172.3" width="1415.2" height="24.65" shape-rendering="crispEdges"/><rect fill="#353844" x="1464" y="172.3" width="24.4" height="24.65" shape-rendering="crispEdges"/><rect fill="#353844" x="1488.4" y="172.3" width="24.4" height="24.65" shape-rendering="crispEdges"/><rect fill="#1b1e2a" x="1512.8" y="172.3" width="12.2" height="24.65" shape-rendering="crispEdges"/><rect fill="#2b2e3b" x="1525" y="172.3" width="12.2" height="24.65" shape-rendering="crispEdges"/><rect fill="#2b2e3b" x="1537.2" y="172.3" width="12.2" height="24.65" shape-rendering="crispEdges"/><rect fill="#2b2e3b" x="0" y="196.7" width="12.2" height="24.65" shape-rendering="crispEdges"/><rect fill="#2b2e3b" x="12.2" y="196.7" width="12.2" height="24.65" shape-rendering="crispEdges"/><rect fill="#353844" x="24.4" y="196.7" width="24.4" height="24.65" shape-rendering="crispEdges"/><rect fill="#353844" x="48.8" y="196.7" width="1439.6" height="24.65" shape-rendering="crispEdges"/><rect fill="#353844" x="1488.4" y="196.7" width="24.4" height="24.65" shape-rendering="crispEdges"/><rect fill="#1b1e2a" x="1512.8" y="196.7" width="12.2" height="24.65" shape-rendering="crispEdges"/><rect fill="#2b2e3b" x="1525" y="196.7" width="12.2" height="24.65" shape-rendering="crispEdges"/><rect fill="#2b2e3b" x="1537.2" y="196.7" width="12.2" height="24.65" shape-rendering="crispEdges"/><rect fill="#2b2e3b" x="0" y="221.1" width="12.2" height="24.65" shape-rendering="crispEdges"/><rect fill="#2b2e3b" x="12.2" y="221.1" width="12.2" height="24.65" shape-rendering="crispEdges"/><rect fill="#353844" x="24.4" y="221.1" width="24.4" height="24.65" shape-rendering="crispEdges"/><rect fill="#353844" x="48.8" y="221.1" width="683.2" height="24.65" shape-rendering="crispEdges"/><rect fill="#353844" x="732" y="221.1" width="24.4" height="24.65" shape-rendering="crispEdges"/><rect fill="#353844" x="756.4" y="221.1" width="671" height="24.65" shape-rendering="crispEdges"/><rect fill="#353844" x="1427.4" y="221.1" width="61" height="24.65" shape-rendering="crispEdges"/><rect fill="#353844" x="1488.4" y="221.1" width="24.4" height="24.65" shape-rendering="crispEdges"/><rect fill="#1b1e2a" x="1512.8" y="221.1" width="12.2" height="24.65" shape-rendering="crispEdges"/><rect fill="#2b2e3b" x="1525" y="221.1" width="12.2" height="24.65" shape-rendering="crispEdges"/><rect fill="#2b2e3b" x="1537.2" y="221.1" width="12.2" height="24.65" shape-rendering="crispEdges"/><rect fill="#2b2e3b" x="0" y="245.5" width="12.2" height="24.65" shape-rendering="crispEdges"/><rect fill="#2b2e3b" x="12.2" y="245.5" width="12.2" height="24.65" shape-rendering="crispEdges"/><rect fill="#353844" x="24.4" y="245.5" width="24.4" height="24.65" shape-rendering="crispEdges"/><rect fill="#353844" x="48.8" y="245.5" width="1439.6" height="24.65" shape-rendering="crispEdges"/><rect fill="#353844" x="1488.4" y="245.5" width="24.4" height="24.65" shape-rendering="crispEdges"/><rect fill="#1b1e2a" x="1512.8" y="245.5" width="12.2" height="24.65" shape-rendering="crispEdges"/><rect fill="#2b2e3b" x="1525" y="245.5" width="12.2" height="24.65" shape-rendering="crispEdges"/><rect fill="#2b2e3b" x="1537.2" y="245.5" width="12.2" height="24.65" shape-rendering="crispEdges"/><rect fill="#2b2e3b" x="0" y="269.9" width="12.2" height="24.65" shape-rendering="crispEdges"/><rect fill="#2b2e3b" x="12.2" y="269.9" width="12.2" height="24.65" shape-rendering="crispEdges"/><rect fill="#353844" x="24.4" y="269.9" width="24.4" height="24.65" shape-rendering="crispEdges"/><rect fill="#353844" x="48.8" y="269.9" width="1427.4" height="24.65" shape-rendering="crispEdges"/><rect fill="#353844" x="1476.2" y="269.9" width="12.2" height="24.65" shape-rendering="crispEdges"/><rect fill="#353844" x="1488.4" y="269.9" width="24.4" height="24.65" shape-rendering="crispEdges"/><rect fill="#1b1e2a" x="1512.8" y="269.9" width="12.2" height="24.65" shape-rendering="crispEdges"/><rect fill="#2b2e3b" x="1525" y="269.9" width="12.2" height="24.65" shape-rendering="crispEdges"/><rect fill="#2b2e3b" x="1537.2" y="269.9" width="12.2" height="24.65" shape-rendering="crispEdges"/><rect fill="#2b2e3b" x="0" y="294.3" width="12.2" height="24.65" shape-rendering="crispEdges"/><rect fill="#2b2e3b" x="12.2" y="294.3" width="12.2" height="24.65" shape-rendering="crispEdges"/><rect fill="#353844" x="24.4" y="294.3" width="24.4" height="24.65" shape-rendering="crispEdges"/><rect fill="#353844" x="48.8" y="294.3" width="329.4" height="24.65" shape-rendering="crispEdges"/><rect fill="#353844" x="378.2" y="294.3" width="1110.2" height="24.65" shape-rendering="crispEdges"/><rect fill="#353844" x="1488.4" y="294.3" width="24.4" height="24.65" shape-rendering="crispEdges"/><rect fill="#1b1e2a" x="1512.8" y="294.3" width="12.2" height="24.65" shape-rendering="crispEdges"/><rect fill="#2b2e3b" x="1525" y="294.3" width="12.2" height="24.65" shape-rendering="crispEdges"/><rect fill="#2b2e3b" x="1537.2" y="294.3" width="12.2" height="24.65" shape-rendering="crispEdges"/><rect fill="#2b2e3b" x="0" y="318.7" width="12.2" height="24.65" shape-rendering="crispEdges"/><rect fill="#2b2e3b" x="12.2" y="318.7" width="12.2" height="24.65" shape-rendering="crispEdges"/><rect fill="#353844" x="24.4" y="318.7" width="24.4" height="24.65" shape-rendering="crispEdges"/><rect fill="#353844" x="48.8" y="318.7" width="1439.6" height="24.65" shape-rendering="crispEdges"/><rect fill="#353844" x="1488.4" y="318.7" width="24.4" height="24.65" shape-rendering="crispEdges"/><rect fill="#1b1e2a" x="1512.8" y="318.7" width="12.2" height="24.65" shape-rendering="crispEdges"/><rect fill="#2b2e3b" x="1525" y="318.7" width="12.2" height="24.65" shape-rendering="crispEdges"/><rect fill="#2b2e3b" x="1537.2" y="318.7" width="12.2" height="24.65" shape-rendering="crispEdges"/><rect fill="#2b2e3b" x="0" y="343.1" width="12.2" height="24.65" shape-rendering="crispEdges"/><rect fill="#2b2e3b" x="12.2" y="343.1" width="12.2" height="24.65" shape-rendering="crispEdges"/><rect fill="#353844" x="24.4" y="343.1" width="24.4" height="24.65" shape-rendering="crispEdges"/><rect fill="#353844" x="48.8" y="343.1" width="36.6" height="24.65" shape-rendering="crispEdges"/><rect fill="#353844" x="85.4" y="343.1" width="1403" height="24.65" shape-rendering="crispEdges"/><rect fill="#353844" x="1488.4" y="343.1" width="24.4" height="24.65" shape-rendering="crispEdges"/><rect fill="#1b1e2a" x="1512.8" y="343.1" width="12.2" height="24.65" shape-rendering="crispEdges"/><rect fill="#2b2e3b" x="1525" y="343.1" width="12.2" height="24.65" shape-rendering="crispEdges"/><rect fill="#2b2e3b" x="1537.2" y="343.1" width="12.2" height="24.65" shape-rendering="crispEdges"/><rect fill="#2b2e3b" x="0" y="367.5" width="12.2" height="24.65" shape-rendering="crispEdges"/><rect fill="#2b2e3b" x="12.2" y="367.5" width="12.2" height="24.65" shape-rendering="crispEdges"/><rect fill="#353844" x="24.4" y="367.5" width="24.4" height="24.65" shape-rendering="crispEdges"/><rect fill="#353844" x="48.8" y="367.5" width="1439.6" height="24.65" shape-rendering="crispEdges"/><rect fill="#353844" x="1488.4" y="367.5" width="24.4" height="24.65" shape-rendering="crispEdges"/><rect fill="#1b1e2a" x="1512.8" y="367.5" width="12.2" height="24.65" shape-rendering="crispEdges"/><rect fill="#2b2e3b" x="1525" y="367.5" width="12.2" height="24.65" shape-rendering="crispEdges"/><rect fill="#2b2e3b" x="1537.2" y="367.5" width="12.2" height="24.65" shape-rendering="crispEdges"/><rect fill="#2b2e3b" x="0" y="391.9" width="12.2" height="24.65" shape-rendering="crispEdges"/><rect fill="#2b2e3b" x="12.2" y="391.9" width="12.2" height="24.65" shape-rendering="crispEdges"/><rect fill="#353844" x="24.4" y="391.9" width="24.4" height="24.65" shape-rendering="crispEdges"/><rect fill="#353844" x="48.8" y="391.9" width="1439.6" height="24.65" shape-rendering="crispEdges"/><rect fill="#353844" x="1488.4" y="391.9" width="24.4" height="24.65" shape-rendering="crispEdges"/><rect fill="#1b1e2a" x="1512.8" y="391.9" width="12.2" height="24.65" shape-rendering="crispEdges"/><rect fill="#2b2e3b" x="1525" y="391.9" width="12.2" height="24.65" shape-rendering="crispEdges"/><rect fill="#2b2e3b" x="1537.2" y="391.9" width="12.2" height="24.65" shape-rendering="crispEdges"/><rect fill="#2b2e3b" x="0" y="416.3" width="12.2" height="24.65" shape-rendering="crispEdges"/><rect fill="#2b2e3b" x="12.2" y="416.3" width="1525" height="24.65" shape-rendering="crispEdges"/><rect fill="#2b2e3b" x="1537.2" y="416.3" width="12.2" height="24.65" shape-rendering="crispEdges"/><rect fill="#2b2e3b" x="0" y="440.7" width="12.2" height="24.65" shape-rendering="crispEdges"/><rect fill="#2b2e3b" x="12.2" y="440.7" width="1525" height="24.65" shape-rendering="crispEdges"/><rect fill="#2b2e3b" x="1537.2" y="440.7" width="12.2" height="24.65" shape-rendering="crispEdges"/><rect fill="#282a36" x="0" y="465.1" width="48.8" height="24.65" shape-rendering="crispEdges"/><rect fill="#282a36" x="48.8" y="465.1" width="97.6" height="24.65" shape-rendering="crispEdges"/><rect fill="#282a36" x="146.4" y="465.1" width="36.6" height="24.65" shape-rendering="crispEdges"/><rect fill="#282a36" x="183" y="465.1" width="61" height="24.65" shape-rendering="crispEdges"/><rect fill="#282a36" x="244" y="465.1" width="36.6" height="24.65" shape-rendering="crispEdges"/><rect fill="#282a36" x="280.6" y="465.1" width="195.2" height="24.65" shape-rendering="crispEdges"/><rect fill="#282a36" x="475.8" y="465.1" width="36.6" height="24.65" shape-rendering="crispEdges"/><rect fill="#282a36" x="512.4" y="465.1" width="61" height="24.65" shape-rendering="crispEdges"/><rect fill="#282a36" x="573.4" y="465.1" width="976" height="24.65" shape-rendering="crispEdges"/>
    <g class="terminal-3165956597-matrix">
    <text class="terminal-3165956597-r1" x="0" y="20" textLength="12.2" clip-path="url(#terminal-3165956597-line-0)">╭</text><text class="terminal-3165956597-r1" x="12.2" y="20" textLength="12.2" clip-path="url(#terminal-3165956597-line-0)">─</text><text class="terminal-3165956597-r1" x="24.4" y="20" textLength="109.8" clip-path="url(#terminal-3165956597-line-0)">&#160;article&#160;</text><text class="terminal-3165956597-r1" x="134.2" y="20" textLength="1403" clip-path="url(#terminal-3165956597-line-0)">───────────────────────────────────────────────────────────────────────────────────────────────────────────────────</text><text class="terminal-3165956597-r1" x="1537.2" y="20" textLength="12.2" clip-path="url(#terminal-3165956597-line-0)">╮</text><text class="terminal-3165956597-r2" x="1549.4" y="20" textLength="12.2" clip-path="url(#terminal-3165956597-line-0)">
</text><text class="terminal-3165956597-r1" x="0" y="44.4" textLength="12.2" clip-path="url(#terminal-3165956597-line-1)">│</text><text class="terminal-3165956597-r1" x="1537.2" y="44.4" textLength="12.2" clip-path="url(#terminal-3165956597-line-1)">│</text><text class="terminal-3165956597-r2" x="1549.4" y="44.4" textLength="12.2" clip-path="url(#terminal-3165956597-line-1)">
</text><text class="terminal-3165956597-r1" x="0" y="68.8" textLength="12.2" clip-path="url(#terminal-3165956597-line-2)">│</text><text class="terminal-3165956597-r3" x="48.8" y="68.8" textLength="134.2" clip-path="url(#terminal-3165956597-line-2)">09&#160;Jan&#160;2013</text><text class="terminal-3165956597-r1" x="1537.2" y="68.8" textLength="12.2" clip-path="url(#terminal-3165956597-line-2)">│</text><text class="terminal-3165956597-r2" x="1549.4" y="68.8" textLength="12.2" clip-path="url(#terminal-3165956597-line-2)">
</text><text class="terminal-3165956597-r1" x="0" y="93.2" textLength="12.2" clip-path="url(#terminal-3165956597-line-3)">│</text><text class="terminal-3165956597-r1" x="1537.2" y="93.2" textLength="12.2" clip-path="url(#terminal-3165956597-line-3)">│</text><text class="terminal-3165956597-r2" x="1549.4" y="93.2" textLength="12.2" clip-path="url(#terminal-3165956597-line-3)">
</text><text class="terminal-3165956597-r1" x="0" y="117.6" textLength="12.2" clip-path="url(#terminal-3165956597-line-4)">│</text><text class="terminal-3165956597-r1" x="1537.2" y="117.6" textLength="12.2" clip-path="url(#terminal-3165956597-line-4)">│</text><text class="terminal-3165956597-r2" x="1549.4" y="117.6" textLength="12.2" clip-path="url(#terminal-3165956597-line-4)">
</text><text class="terminal-3165956597-r1" x="0" y="142" textLength="12.2" clip-path="url(#terminal-3165956597-line-5)">│</text><text class="terminal-3165956597-r5" x="439.2" y="142" textLength="658.8" clip-path="url(#terminal-3165956597-line-5)">Game&#160;Jams:&#160;The&#160;most&#160;fun&#160;you&#160;can&#160;have&#160;while&#160;programming</text><text class="terminal-3165956597-r6" x="1512.8" y="142" textLength="12.2" clip-path="url(#terminal-3165956597-line-5)">▂</text><text class="terminal-3165956597-r1" x="1537.2" y="142" textLength="12.2" clip-path="url(#terminal-3165956597-line-5)">│</text><text class="terminal-3165956597-r2" x="1549.4" y="142" textLength="12.2" clip-path="url(#terminal-3165956597-line-5)">
</text><text class="terminal-3165956597-r1" x="0" y="166.4" textLength="12.2" clip-path="url(#terminal-3165956597-line-6)">│</text><text class="terminal-3165956597-r1" x="1537.2" y="166.4" textLength="12.2" clip-path="url(#terminal-3165956597-line-6)">│</text><text class="terminal-3165956597-r2" x="1549.4" y="166.4" textLength="12.2" clip-path="url(#terminal-3165956597-line-6)">
</text><text class="terminal-3165956597-r1" x="0" y="190.8" textLength="12.2" clip-path="url(#terminal-3165956597-line-7)">│</text><text class="terminal-3165956597-r3" x="48.8" y="190.8" textLength="1415.2" clip-path="url(#terminal-3165956597-line-7)">Programming&#160;is&#160;a&#160;lot&#160;of&#160;fun.&#160;It’s&#160;an&#160;awesome&#160;feeling&#160;when&#160;your&#160;code&#160;compiles&#160;without&#160;errors,&#160;the&#160;app&#160;passes&#160;all&#160;the&#160;</text><text class="terminal-3165956597-r1" x="1537.2" y="190.8" textLength="12.2" clip-path="url(#terminal-3165956597-line-7)">│</text><text class="terminal-3165956597-r2" x="1549.4" y="190.8" textLength="12.2" clip-path="url(#terminal-3165956597-line-7)">
</text><text class="terminal-3165956597-r1" x="0" y="215.2" textLength="12.2" clip-path="url(#terminal-3165956597-line-8)">│</text><text class="terminal-3165956597-r3" x="48.8" y="215.2" textLength="1439.6" clip-path="url(#terminal-3165956597-line-8)">tests,&#160;and&#160;runs&#160;without&#160;any&#160;(noticeable)&#160;bugs.&#160;It’s&#160;an&#160;awesome&#160;feeling&#160;even&#160;if&#160;you&#160;are&#160;working&#160;on&#160;a&#160;boring&#160;enterprise&#160;</text><text class="terminal-3165956597-r1" x="1537.2" y="215.2" textLength="12.2" clip-path="url(#terminal-3165956597-line-8)">│</text><text class="terminal-3165956597-r2" x="1549.4" y="215.2" textLength="12.2" clip-path="url(#terminal-3165956597-line-8)">
</text><text class="terminal-3165956597-r1" x="0" y="239.6" textLength="12.2" clip-path="url(#terminal-3165956597-line-9)">│</text><text class="terminal-3165956597-r3" x="48.8" y="239.6" textLength="683.2" clip-path="url(#terminal-3165956597-line-9)">app.&#160;You&#160;made&#160;the&#160;primitive&#160;machine&#160;under&#160;your&#160;keyboard&#160;</text><text class="terminal-3165956597-r7" x="732" y="239.6" textLength="24.4" clip-path="url(#terminal-3165956597-line-9)">do</text><text class="terminal-3165956597-r3" x="756.4" y="239.6" textLength="671" clip-path="url(#terminal-3165956597-line-9)">&#160;something.&#160;If&#160;that&#160;isn’t&#160;amazing&#160;I&#160;don’t&#160;know&#160;what&#160;is.</text><text class="terminal-3165956597-r1" x="1537.2" y="239.6" textLength="12.2" clip-path="url(#terminal-3165956597-line-9)">│</text><text class="terminal-3165956597-r2" x="1549.4" y="239.6" textLength="12.2" clip-path="url(#terminal-3165956597-line-9)">
</text><text class="terminal-3165956597-r1" x="0" y="264" textLength="12.2" clip-path="url(#terminal-3165956597-line-10)">│</text><text class="terminal-3165956597-r1" x="1537.2" y="264" textLength="12.2" clip-path="url(#terminal-3165956597-line-10)">│</text><text class="terminal-3165956597-r2" x="1549.4" y="264" textLength="12.2" clip-path="url(#terminal-3165956597-line-10)">
</text><text class="terminal-3165956597-r1" x="0" y="288.4" textLength="12.2" clip-path="url(#terminal-3165956597-line-11)">│</text><text class="terminal-3165956597-r3" x="48.8" y="288.4" textLength="1427.4" clip-path="url(#terminal-3165956597-line-11)">Now&#160;take&#160;the&#160;satisfaction&#160;you&#160;get&#160;when&#160;you&#160;produce&#160;working&#160;code&#160;and&#160;multiply&#160;it&#160;by&#160;100.&#160;This&#160;is&#160;how&#160;awesome&#160;it&#160;feels&#160;</text><text class="terminal-3165956597-r1" x="1537.2" y="288.4" textLength="12.2" clip-path="url(#terminal-3165956597-line-11)">│</text><text class="terminal-3165956597-r2" x="1549.4" y="288.4" textLength="12.2" clip-path="url(#terminal-3165956597-line-11)">
</text><text class="terminal-3165956597-r1" x="0" y="312.8" textLength="12.2" clip-path="url(#terminal-3165956597-line-12)">│</text><text class="terminal-3165956597-r3" x="48.8" y="312.8" textLength="329.4" clip-path="url(#terminal-3165956597-line-12)">when&#160;you&#160;are&#160;making&#160;a&#160;game.</text><text class="terminal-3165956597-r1" x="1537.2" y="312.8" textLength="12.2" clip-path="url(#terminal-3165956597-line-12)">│</text><text class="terminal-3165956597-r2" x="1549.4" y="312.8" textLength="12.2" clip-path="url(#terminal-3165956597-line-12)">
</text><text class="terminal-3165956597-r1" x="0" y="337.2" textLength="12.2" clip-path="url(#terminal-3165956597-line-13)">│</text><text class="terminal-3165956597-r1" x="1537.2" y="337.2" textLength="12.2" clip-path="url(#terminal-3165956597-line-13)">│</text><text class="terminal-3165956597-r2" x="1549.4" y="337.2" textLength="12.2" clip-path="url(#terminal-3165956597-line-13)">
</text><text class="terminal-3165956597-r1" x="0" y="361.6" textLength="12.2" clip-path="url(#terminal-3165956597-line-14)">│</text><text class="terminal-3165956597-r8" x="48.8" y="361.6" textLength="36.6" clip-path="url(#terminal-3165956597-line-14)">🖼&#160;&#160;</text><text class="terminal-3165956597-r1" x="1537.2" y="361.6" textLength="12.2" clip-path="url(#terminal-3165956597-line-14)">│</text><text class="terminal-3165956597-r2" x="1549.4" y="361.6" textLength="12.2" clip-path="url(#terminal-3165956597-line-14)">
</text><text class="terminal-3165956597-r1" x="0" y="386" textLength="12.2" clip-path="url(#terminal-3165956597-line-15)">│</text><text class="terminal-3165956597-r1" x="1537.2" y="386" textLength="12.2" clip-path="url(#terminal-3165956597-line-15)">│</text><text class="terminal-3165956597-r2" x="1549.4" y="386" textLength="12.2" clip-path="url(#terminal-3165956597-line-15)">
</text><text class="terminal-3165956597-r1" x="0" y="410.4" textLength="12.2" clip-path="url(#terminal-3165956597-line-16)">│</text><text class="terminal-3165956597-r1" x="1537.2" y="410.4" textLength="12.2" clip-path="url(#terminal-3165956597-line-16)">│</text><text class="terminal-3165956597-r2" x="1549.4" y="410.4" textLength="12.2" clip-path="url(#terminal-3165956597-line-16)">
</text><text class="terminal-3165956597-r1" x="0" y="434.8" textLength="12.2" clip-path="url(#terminal-3165956597-line-17)">│</text><text class="terminal-3165956597-r1" x="1537.2" y="434.8" textLength="12.2" clip-path="url(#terminal-3165956597-line-17)">│</text><text class="terminal-3165956597-r2" x="1549.4" y="434.8" textLength="12.2" clip-path="url(#terminal-3165956597-line-17)">
</text><text class="terminal-3165956597-r1" x="0" y="459.2" textLength="12.2" clip-path="url(#terminal-3165956597-line-18)">╰</text><text class="terminal-3165956597-r1" x="12.2" y="459.2" textLength="1525" clip-path="url(#terminal-3165956597-line-18)">─────────────────────────────────────────────────────────────────────────────────────────────────────────────────────────────</text><text class="terminal-3165956597-r1" x="1537.2" y="459.2" textLength="12.2" clip-path="url(#terminal-3165956597-line-18)">╯</text><text class="terminal-3165956597-r2" x="1549.4" y="459.2" textLength="12.2" clip-path="url(#terminal-3165956597-line-18)">
</text><text class="terminal-3165956597-r9" x="0" y="483.6" textLength="48.8" clip-path="url(#terminal-3165956597-line-19)">&#160;^c&#160;</text><text class="terminal-3165956597-r3" x="48.8" y="483.6" textLength="97.6" clip-path="url(#terminal-3165956597-line-19)">go&#160;back&#160;</text><text class="terminal-3165956597-r9" x="146.4" y="483.6" textLength="36.6" clip-path="url(#terminal-3165956597-line-19)">&#160;s&#160;</text><text class="terminal-3165956597-r3" x="183" y="483.6" textLength="61" clip-path="url(#terminal-3165956597-line-19)">save&#160;</text><text class="terminal-3165956597-r9" x="244" y="483.6" textLength="36.6" clip-path="url(#terminal-3165956597-line-19)">&#160;O&#160;</text><text class="terminal-3165956597-r3" x="280.6" y="483.6" textLength="195.2" clip-path="url(#terminal-3165956597-line-19)">open&#160;in&#160;browser&#160;</text><text class="terminal-3165956597-r9" x="475.8" y="483.6" textLength="36.6" clip-path="url(#terminal-3165956597-line-19)">&#160;?&#160;</text><text class="terminal-3165956597-r3" x="512.4" y="483.6" textLength="61" clip-path="url(#terminal-3165956597-line-19)">help&#160;</text>
    </g>
    </g>
</svg>
