<svg class="rich-terminal" viewBox="0 0 1568 538.0" xmlns="http://www.w3.org/2000/svg">
    <!-- Generated with Rich https://www.textualize.io -->
    <style>

    @font-face {
        font-family: "Fira Code";
        src: local("FiraCode-Regular"),
                url("https://cdnjs.cloudflare.com/ajax/libs/firacode/6.2.0/woff2/FiraCode-Regular.woff2") format("woff2"),
                url("https://cdnjs.cloudflare.com/ajax/libs/firacode/6.2.0/woff/FiraCode-Regular.woff") format("woff");
        font-style: normal;
        font-weight: 400;
    }
    @font-face {
        font-family: "Fira Code";
        src: local("FiraCode-Bold"),
                url("https://cdnjs.cloudflare.com/ajax/libs/firacode/6.2.0/woff2/FiraCode-Bold.woff2") format("woff2"),
                url("https://cdnjs.cloudflare.com/ajax/libs/firacode/6.2.0/woff/FiraCode-Bold.woff") format("woff");
        font-style: bold;
        font-weight: 700;
    }

    .terminal-3281337811-matrix {
        font-family: Fira Code, monospace;
        font-size: 20px;
        line-height: 24.4px;
        font-variant-east-asian: full-width;
    }

    .terminal-3281337811-title {
        font-size: 18px;
        font-weight: bold;
        font-family: arial;
    }

    .terminal-3281337811-r1 { fill: #bd93f9 }
.terminal-3281337811-r2 { fill: #feb86c }
.terminal-3281337811-r3 { fill: #c5c8c6 }
.terminal-3281337811-r4 { fill: #876db2 }
.terminal-3281337811-r5 { fill: #cececc }
.terminal-3281337811-r6 { fill: #282a36 }
.terminal-3281337811-r7 { fill: #f8f8f2 }
.terminal-3281337811-r8 { fill: #f8f8f2;font-weight: bold }
.terminal-3281337811-r9 { fill: #f8f8f2;font-style: italic;;text-decoration: underline; }
.terminal-3281337811-r10 { fill: #f8f8f2;font-weight: bold;text-decoration: line-through; }
.terminal-3281337811-r11 { fill: #1d202c }
.terminal-3281337811-r12 { fill: #181320;font-weight: bold }
.terminal-3281337811-r13 { fill: #181320;font-weight: bold;font-style: italic;;text-decoration: underline; }
.terminal-3281337811-r14 { fill: #ff79c6;font-weight: bold }
    </style>

    <defs>
    <clipPath id="terminal-3281337811-clip-terminal">
      <rect x="0" y="0" width="1548.3999999999999" height="487.0" />
    </clipPath>
    <clipPath id="terminal-3281337811-line-0">
    <rect x="0" y="1.5" width="1549.4" height="24.65"/>
            </clipPath>
<clipPath id="terminal-3281337811-line-1">
    <rect x="0" y="25.9" width="1549.4" height="24.65"/>
            </clipPath>
<clipPath id="terminal-3281337811-line-2">
    <rect x="0" y="50.3" width="1549.4" height="24.65"/>
            </clipPath>
<clipPath id="terminal-3281337811-line-3">
    <rect x="0" y="74.7" width="1549.4" height="24.65"/>
            </clipPath>
<clipPath id="terminal-3281337811-line-4">
    <rect x="0" y="99.1" width="1549.4" height="24.65"/>
            </clipPath>
<clipPath id="terminal-3281337811-line-5">
    <rect x="0" y="123.5" width="1549.4" height="24.65"/>
            </clipPath>
<clipPath id="terminal-3281337811-line-6">
    <rect x="0" y="147.9" width="1549.4" height="24.65"/>
            </clipPath>
<clipPath id="terminal-3281337811-line-7">
    <rect x="0" y="172.3" width="1549.4" height="24.65"/>
            </clipPath>
<clipPath id="terminal-3281337811-line-8">
    <rect x="0" y="196.7" width="1549.4" height="24.65"/>
            </clipPath>
<clipPath id="terminal-3281337811-line-9">
    <rect x="0" y="221.1" width="1549.4" height="24.65"/>
            </clipPath>
<clipPath id="terminal-3281337811-line-10">
    <rect x="0" y="245.5" width="1549.4" height="24.65"/>
            </clipPath>
<clipPath id="terminal-3281337811-line-11">
    <rect x="0" y="269.9" width="1549.4" height="24.65"/>
            </clipPath>
<clipPath id="terminal-3281337811-line-12">
    <rect x="0" y="294.3" width="1549.4" height="24.65"/>
            </clipPath>
<clipPath id="terminal-3281337811-line-13">
    <rect x="0" y="318.7" width="1549.4" height="24.65"/>
            </clipPath>
<clipPath id="terminal-3281337811-line-14">
    <rect x="0" y="343.1" width="1549.4" height="24.65"/>
            </clipPath>
<clipPath id="terminal-3281337811-line-15">
    <rect x="0" y="367.5" width="1549.4" height="24.65"/>
            </clipPath>
<clipPath id="terminal-3281337811-line-16">
    <rect x="0" y="391.9" width="1549.4" height="24.65"/>
            </clipPath>
<clipPath id="terminal-3281337811-line-17">
    <rect x="0" y="416.3" width="1549.4" height="24.65"/>
            </clipPath>
<clipPath id="terminal-3281337811-line-18">
    <rect x="0" y="440.7" width="1549.4" height="24.65"/>
            </clipPath>
    </defs>

    <rect fill="#292929" stroke="rgba(255,255,255,0.35)" stroke-width="1" x="1" y="1" width="1566" height="536" rx="8"/><text class="terminal-3281337811-title" fill="#c5c8c6" text-anchor="middle" x="783" y="27">lazyfeed</text>
            <g transform="translate(26,22)">
            <circle cx="0" cy="0" r="7" fill="#ff5f57"/>
            <circle cx="22" cy="0" r="7" fill="#febc2e"/>
            <circle cx="44" cy="0" r="7" fill="#28c840"/>
            </g>
        
    <g transform="translate(9, 41)" clip-path="url(#terminal-3281337811-clip-terminal)">
    <rect fill="#282a36" x="0" y="1.5" width="122" height="24.65" shape-rendering="crispEdges"/><rect fill="#282a36" x="122" y="1.5" width="12.2" height="24.65" shape-rendering="crispEdges"/><rect fill="#282a36" x="134.2" y="1.5" width="73.2" height="24.65" shape-rendering="crispEdges"/><rect fill="#282a36" x="207.4" y="1.5" width="1342" height="24.65" shape-rendering="crispEdges"/><rect fill="#282a36" x="0" y="25.9" width="12.2" height="24.65" shape-rendering="crispEdges"/><rect fill="#282a36" x="12.2" y="25.9" width="12.2" height="24.65" shape-rendering="crispEdges"/><rect fill="#282a36" x="24.4" y="25.9" width="85.4" height="24.65" shape-rendering="crispEdges"/><rect fill="#282a36" x="109.8" y="25.9" width="183" height="24.65" shape-rendering="crispEdges"/><rect fill="#282a36" x="292.8" y="25.9" width="12.2" height="24.65" shape-rendering="crispEdges"/><rect fill="#32343f" x="305" y="25.9" width="12.2" height="24.65" shape-rendering="crispEdges"/><rect fill="#32343f" x="317.2" y="25.9" width="12.2" height="24.65" shape-rendering="crispEdges"/><rect fill="#32343f" x="329.4" y="25.9" width="85.4" height="24.65" shape-rendering="crispEdges"/><rect fill="#32343f" x="414.8" y="25.9" width="1122.4" height="24.65" shape-rendering="crispEdges"/><rect fill="#32343f" x="1537.2" y="25.9" width="12.2" height="24.65" shape-rendering="crispEdges"/><rect fill="#282a36" x="0" y="50.3" width="12.2" height="24.65" shape-rendering="crispEdges"/><rect fill="#443e5a" x="12.2" y="50.3" width="24.4" height="24.65" shape-rendering="crispEdges"/><rect fill="#443e5a" x="36.6" y="50.3" width="170.8" height="24.65" shape-rendering="crispEdges"/><rect fill="#282a36" x="207.4" y="50.3" width="73.2" height="24.65" shape-rendering="crispEdges"/><rect fill="#2c2f3c" x="280.6" y="50.3" width="12.2" height="24.65" shape-rendering="crispEdges"/><rect fill="#282a36" x="292.8" y="50.3" width="12.2" height="24.65" shape-rendering="crispEdges"/><rect fill="#32343f" x="305" y="50.3" width="12.2" height="24.65" shape-rendering="crispEdges"/><rect fill="#32343f" x="317.2" y="50.3" width="36.6" height="24.65" shape-rendering="crispEdges"/><rect fill="#32343f" x="353.8" y="50.3" width="61" height="24.65" shape-rendering="crispEdges"/><rect fill="#32343f" x="414.8" y="50.3" width="24.4" height="24.65" shape-rendering="crispEdges"/><rect fill="#32343f" x="439.2" y="50.3" width="402.6" height="24.65" shape-rendering="crispEdges"/><rect fill="#32343f" x="841.8" y="50.3" width="695.4" height="24.65" shape-rendering="crispEdges"/><rect fill="#32343f" x="1537.2" y="50.3" width="12.2" height="24.65" shape-rendering="crispEdges"/><rect fill="#282a36" x="0" y="74.7" width="12.2" height="24.65" shape-rendering="crispEdges"/><rect fill="#9f7ed2" x="12.2" y="74.7" width="24.4" height="24.65" shape-rendering="crispEdges"/><rect fill="#282a36" x="36.6" y="74.7" width="244" height="24.65" shape-rendering="crispEdges"/><rect fill="#2c2f3c" x="280.6" y="74.7" width="12.2" height="24.65" shape-rendering="crispEdges"/><rect fill="#282a36" x="292.8" y="74.7" width="12.2" height="24.65" shape-rendering="crispEdges"/><rect fill="#32343f" x="305" y="74.7" width="12.2" height="24.65" shape-rendering="crispEdges"/><rect fill="#32343f" x="317.2" y="74.7" width="36.6" height="24.65" shape-rendering="crispEdges"/><rect fill="#32343f" x="353.8" y="74.7" width="390.4" height="24.65" shape-rendering="crispEdges"/><rect fill="#32343f" x="744.2" y="74.7" width="24.4" height="24.65" shape-rendering="crispEdges"/><rect fill="#32343f" x="768.6" y="74.7" width="768.6" height="24.65" shape-rendering="crispEdges"/><rect fill="#32343f" x="1537.2" y="74.7" width="12.2" height="24.65" shape-rendering="crispEdges"/><rect fill="#282a36" x="0" y="99.1" width="12.2" height="24.65" shape-rendering="crispEdges"/><rect fill="#9f7ed2" x="12.2" y="99.1" width="24.4" height="24.65" shape-rendering="crispEdges"/><rect fill="#282a36" x="36.6" y="99.1" width="244" height="24.65" shape-rendering="crispEdges"/><rect fill="#2c2f3c" x="280.6" y="99.1" width="12.2" height="24.65" shape-rendering="crispEdges"/><rect fill="#282a36" x="292.8" y="99.1" width="12.2" height="24.65" shape-rendering="crispEdges"/><rect fill="#32343f" x="305" y="99.1" width="12.2" height="24.65" shape-rendering="crispEdges"/><rect fill="#32343f" x="317.2" y="99.1" width="36.6" height="24.65" shape-rendering="crispEdges"/><rect fill="#32343f" x="353.8" y="99.1" width="524.6" height="24.65" shape-rendering="crispEdges"/><rect fill="#32343f" x="878.4" y="99.1" width="24.4" height="24.65" shape-rendering="crispEdges"/><rect fill="#32343f" x="902.8" y="99.1" width="634.4" height="24.65" shape-rendering="crispEdges"/><rect fill="#32343f" x="1537.2" y="99.1" width="12.2" height="24.65" shape-rendering="crispEdges"/><rect fill="#282a36" x="0" y="123.5" width="12.2" height="24.65" shape-rendering="crispEdges"/><rect fill="#9f7ed2" x="12.2" y="123.5" width="24.4" height="24.65" shape-rendering="crispEdges"/><rect fill="#282a36" x="36.6" y="123.5" width="158.6" height="24.65" shape-rendering="crispEdges"/><rect fill="#282a36" x="195.2" y="123.5" width="85.4" height="24.65" shape-rendering="crispEdges"/><rect fill="#2c2f3c" x="280.6" y="123.5" width="12.2" height="24.65" shape-rendering="crispEdges"/><rect fill="#282a36" x="292.8" y="123.5" width="12.2" height="24.65" shape-rendering="crispEdges"/><rect fill="#32343f" x="305" y="123.5" width="12.2" height="24.65" shape-rendering="crispEdges"/><rect fill="#bd93f9" x="317.2" y="123.5" width="646.6" height="24.65" shape-rendering="crispEdges"/><rect fill="#bd93f9" x="963.8" y="123.5" width="427" height="24.65" shape-rendering="crispEdges"/><rect fill="#bd93f9" x="1390.8" y="123.5" width="146.4" height="24.65" shape-rendering="crispEdges"/><rect fill="#32343f" x="1537.2" y="123.5" width="12.2" height="24.65" shape-rendering="crispEdges"/><rect fill="#282a36" x="0" y="147.9" width="12.2" height="24.65" shape-rendering="crispEdges"/><rect fill="#9f7ed2" x="12.2" y="147.9" width="24.4" height="24.65" shape-rendering="crispEdges"/><rect fill="#282a36" x="36.6" y="147.9" width="183" height="24.65" shape-rendering="crispEdges"/><rect fill="#282a36" x="219.6" y="147.9" width="61" height="24.65" shape-rendering="crispEdges"/><rect fill="#1d202c" x="280.6" y="147.9" width="12.2" height="24.65" shape-rendering="crispEdges"/><rect fill="#282a36" x="292.8" y="147.9" width="12.2" height="24.65" shape-rendering="crispEdges"/><rect fill="#32343f" x="305" y="147.9" width="12.2" height="24.65" shape-rendering="crispEdges"/><rect fill="#32343f" x="317.2" y="147.9" width="1220" height="24.65" shape-rendering="crispEdges"/><rect fill="#32343f" x="1537.2" y="147.9" width="12.2" height="24.65" shape-rendering="crispEdges"/><rect fill="#282a36" x="0" y="172.3" width="12.2" height="24.65" shape-rendering="crispEdges"/><rect fill="#9f7ed2" x="12.2" y="172.3" width="24.4" height="24.65" shape-rendering="crispEdges"/><rect fill="#282a36" x="36.6" y="172.3" width="195.2" height="24.65" shape-rendering="crispEdges"/><rect fill="#282a36" x="231.8" y="172.3" width="48.8" height="24.65" shape-rendering="crispEdges"/><rect fill="#1d202c" x="280.6" y="172.3" width="12.2" height="24.65" shape-rendering="crispEdges"/><rect fill="#282a36" x="292.8" y="172.3" width="12.2" height="24.65" shape-rendering="crispEdges"/><rect fill="#32343f" x="305" y="172.3" width="12.2" height="24.65" shape-rendering="crispEdges"/><rect fill="#32343f" x="317.2" y="172.3" width="1220" height="24.65" shape-rendering="crispEdges"/><rect fill="#32343f" x="1537.2" y="172.3" width="12.2" height="24.65" shape-rendering="crispEdges"/><rect fill="#282a36" x="0" y="196.7" width="12.2" height="24.65" shape-rendering="crispEdges"/><rect fill="#9f7ed2" x="12.2" y="196.7" width="24.4" height="24.65" shape-rendering="crispEdges"/><rect fill="#282a36" x="36.6" y="196.7" width="244" height="24.65" shape-rendering="crispEdges"/><rect fill="#1d202c" x="280.6" y="196.7" width="12.2" height="24.65" shape-rendering="crispEdges"/><rect fill="#282a36" x="292.8" y="196.7" width="12.2" height="24.65" shape-rendering="crispEdges"/><rect fill="#32343f" x="305" y="196.7" width="12.2" height="24.65" shape-rendering="crispEdges"/><rect fill="#32343f" x="317.2" y="196.7" width="1220" height="24.65" shape-rendering="crispEdges"/><rect fill="#32343f" x="1537.2" y="196.7" width="12.2" height="24.65" shape-rendering="crispEdges"/><rect fill="#282a36" x="0" y="221.1" width="12.2" height="24.65" shape-rendering="crispEdges"/><rect fill="#9f7ed2" x="12.2" y="221.1" width="24.4" height="24.65" shape-rendering="crispEdges"/><rect fill="#282a36" x="36.6" y="221.1" width="183" height="24.65" shape-rendering="crispEdges"/><rect fill="#282a36" x="219.6" y="221.1" width="61" height="24.65" shape-rendering="crispEdges"/><rect fill="#1d202c" x="280.6" y="221.1" width="12.2" height="24.65" shape-rendering="crispEdges"/><rect fill="#282a36" x="292.8" y="221.1" width="12.2" height="24.65" shape-rendering="crispEdges"/><rect fill="#32343f" x="305" y="221.1" width="12.2" height="24.65" shape-rendering="crispEdges"/><rect fill="#32343f" x="317.2" y="221.1" width="1220" height="24.65" shape-rendering="crispEdges"/><rect fill="#32343f" x="1537.2" y="221.1" width="12.2" height="24.65" shape-rendering="crispEdges"/><rect fill="#282a36" x="0" y="245.5" width="12.2" height="24.65" shape-rendering="crispEdges"/><rect fill="#9f7ed2" x="12.2" y="245.5" width="24.4" height="24.65" shape-rendering="crispEdges"/><rect fill="#282a36" x="36.6" y="245.5" width="146.4" height="24.65" shape-rendering="crispEdges"/><rect fill="#282a36" x="183" y="245.5" width="97.6" height="24.65" shape-rendering="crispEdges"/><rect fill="#1d202c" x="280.6" y="245.5" width="12.2" height="24.65" shape-rendering="crispEdges"/><rect fill="#282a36" x="292.8" y="245.5" width="12.2" height="24.65" shape-rendering="crispEdges"/><rect fill="#32343f" x="305" y="245.5" width="12.2" height="24.65" shape-rendering="crispEdges"/><rect fill="#32343f" x="317.2" y="245.5" width="1220" height="24.65" shape-rendering="crispEdges"/><rect fill="#32343f" x="1537.2" y="245.5" width="12.2" height="24.65" shape-rendering="crispEdges"/><rect fill="#282a36" x="0" y="269.9" width="12.2" height="24.65" shape-rendering="crispEdges"/><rect fill="#9f7ed2" x="12.2" y="269.9" width="24.4" height="24.65" shape-rendering="crispEdges"/><rect fill="#282a36" x="36.6" y="269.9" width="244" height="24.65" shape-rendering="crispEdges"/><rect fill="#1d202c" x="280.6" y="269.9" width="12.2" height="24.65" shape-rendering="crispEdges"/><rect fill="#282a36" x="292.8" y="269.9" width="12.2" height="24.65" shape-rendering="crispEdges"/><rect fill="#32343f" x="305" y="269.9" width="12.2" height="24.65" shape-rendering="crispEdges"/><rect fill="#32343f" x="317.2" y="269.9" width="1220" height="24.65" shape-rendering="crispEdges"/><rect fill="#32343f" x="1537.2" y="269.9" width="12.2" height="24.65" shape-rendering="crispEdges"/><rect fill="#282a36" x="0" y="294.3" width="12.2" height="24.65" shape-rendering="crispEdges"/><rect fill="#9f7ed2" x="12.2" y="294.3" width="24.4" height="24.65" shape-rendering="crispEdges"/><rect fill="#282a36" x="36.6" y="294.3" width="244" height="24.65" shape-rendering="crispEdges"/><rect fill="#1d202c" x="280.6" y="294.3" width="12.2" height="24.65" shape-rendering="crispEdges"/><rect fill="#282a36" x="292.8" y="294.3" width="12.2" height="24.65" shape-rendering="crispEdges"/><rect fill="#32343f" x="305" y="294.3" width="12.2" height="24.65" shape-rendering="crispEdges"/><rect fill="#32343f" x="317.2" y="294.3" width="1220" height="24.65" shape-rendering="crispEdges"/><rect fill="#32343f" x="1537.2" y="294.3" width="12.2" height="24.65" shape-rendering="crispEdges"/><rect fill="#282a36" x="0" y="318.7" width="12.2" height="24.65" shape-rendering="crispEdges"/><rect fill="#9f7ed2" x="12.2" y="318.7" width="36.6" height="24.65" shape-rendering="crispEdges"/><rect fill="#282a36" x="48.8" y="318.7" width="109.8" height="24.65" shape-rendering="crispEdges"/><rect fill="#282a36" x="158.6" y="318.7" width="122" height="24.65" shape-rendering="crispEdges"/><rect fill="#1d202c" x="280.6" y="318.7" width="12.2" height="24.65" shape-rendering="crispEdges"/><rect fill="#282a36" x="292.8" y="318.7" width="12.2" height="24.65" shape-rendering="crispEdges"/><rect fill="#32343f" x="305" y="318.7" width="12.2" height="24.65" shape-rendering="crispEdges"/><rect fill="#32343f" x="317.2" y="318.7" width="1220" height="24.65" shape-rendering="crispEdges"/><rect fill="#32343f" x="1537.2" y="318.7" width="12.2" height="24.65" shape-rendering="crispEdges"/><rect fill="#282a36" x="0" y="343.1" width="12.2" height="24.65" shape-rendering="crispEdges"/><rect fill="#9f7ed2" x="12.2" y="343.1" width="24.4" height="24.65" shape-rendering="crispEdges"/><rect fill="#282a36" x="36.6" y="343.1" width="244" height="24.65" shape-rendering="crispEdges"/><rect fill="#1d202c" x="280.6" y="343.1" width="12.2" height="24.65" shape-rendering="crispEdges"/><rect fill="#282a36" x="292.8" y="343.1" width="12.2" height="24.65" shape-rendering="crispEdges"/><rect fill="#32343f" x="305" y="343.1" width="12.2" height="24.65" shape-rendering="crispEdges"/><rect fill="#32343f" x="317.2" y="343.1" width="1220" height="24.65" shape-rendering="crispEdges"/><rect fill="#32343f" x="1537.2" y="343.1" width="12.2" height="24.65" shape-rendering="crispEdges"/><rect fill="#282a36" x="0" y="367.5" width="12.2" height="24.65" shape-rendering="crispEdges"/><rect fill="#9f7ed2" x="12.2" y="367.5" width="36.6" height="24.65" shape-rendering="crispEdges"/><rect fill="#282a36" x="48.8" y="367.5" width="207.4" height="24.65" shape-rendering="crispEdges"/><rect fill="#282a36" x="256.2" y="367.5" width="24.4" height="24.65" shape-rendering="crispEdges"/><rect fill="#1d202c" x="280.6" y="367.5" width="12.2" height="24.65" shape-rendering="crispEdges"/><rect fill="#282a36" x="292.8" y="367.5" width="12.2" height="24.65" shape-rendering="crispEdges"/><rect fill="#32343f" x="305" y="367.5" width="12.2" height="24.65" shape-rendering="crispEdges"/><rect fill="#32343f" x="317.2" y="367.5" width="1220" height="24.65" shape-rendering="crispEdges"/><rect fill="#32343f" x="1537.2" y="367.5" width="12.2" height="24.65" shape-rendering="crispEdges"/><rect fill="#282a36" x="0" y="391.9" width="12.2" height="24.65" shape-rendering="crispEdges"/><rect fill="#9f7ed2" x="12.2" y="391.9" width="36.6" height="24.65" shape-rendering="crispEdges"/><rect fill="#282a36" x="48.8" y="391.9" width="207.4" height="24.65" shape-rendering="crispEdges"/><rect fill="#282a36" x="256.2" y="391.9" width="24.4" height="24.65" shape-rendering="crispEdges"/><rect fill="#1d202c" x="280.6" y="391.9" width="12.2" height="24.65" shape-rendering="crispEdges"/><rect fill="#282a36" x="292.8" y="391.9" width="12.2" height="24.65" shape-rendering="crispEdges"/><rect fill="#32343f" x="305" y="391.9" width="12.2" height="24.65" shape-rendering="crispEdges"/><rect fill="#32343f" x="317.2" y="391.9" width="1220" height="24.65" shape-rendering="crispEdges"/><rect fill="#32343f" x="1537.2" y="391.9" width="12.2" height="24.65" shape-rendering="crispEdges"/><rect fill="#282a36" x="0" y="416.3" width="12.2" height="24.65" shape-rendering="crispEdges"/><rect fill="#9f7ed2" x="12.2" y="416.3" width="24.4" height="24.65" shape-rendering="crispEdges"/><rect fill="#282a36" x="36.6" y="416.3" width="158.6" height="24.65" shape-rendering="crispEdges"/><rect fill="#282a36" x="195.2" y="416.3" width="85.4" height="24.65" shape-rendering="crispEdges"/><rect fill="#1d202c" x="280.6" y="416.3" width="12.2" height="24.65" shape-rendering="crispEdges"/><rect fill="#282a36" x="292.8" y="416.3" width="12.2" height="24.65" shape-rendering="crispEdges"/><rect fill="#32343f" x="305" y="416.3" width="12.2" height="24.65" shape-rendering="crispEdges"/><rect fill="#32343f" x="317.2" y="416.3" width="1220" height="24.65" shape-rendering="crispEdges"/><rect fill="#32343f" x="1537.2" y="416.3" width="12.2" height="24.65" shape-rendering="crispEdges"/><rect fill="#282a36" x="0" y="440.7" width="12.2" height="24.65" shape-rendering="crispEdges"/><rect fill="#282a36" x="12.2" y="440.7" width="280.6" height="24.65" shape-rendering="crispEdges"/><rect fill="#282a36" x="292.8" y="440.7" width="12.2" height="24.65" shape-rendering="crispEdges"/><rect fill="#32343f" x="305" y="440.7" width="12.2" height="24.65" shape-rendering="crispEdges"/><rect fill="#32343f" x="317.2" y="440.7" width="1171.2" height="24.65" shape-rendering="crispEdges"/><rect fill="#32343f" x="1488.4" y="440.7" width="36.6" height="24.65" shape-rendering="crispEdges"/><rect fill="#32343f" x="1525" y="440.7" width="12.2" height="24.65" shape-rendering="crispEdges"/><rect fill="#32343f" x="1537.2" y="440.7" width="12.2" height="24.65" shape-rendering="crispEdges"/><rect fill="#282a36" x="0" y="465.1" width="36.6" height="24.65" shape-rendering="crispEdges"/><rect fill="#282a36" x="36.6" y="465.1" width="61" height="24.65" shape-rendering="crispEdges"/><rect fill="#282a36" x="97.6" y="465.1" width="36.6" height="24.65" shape-rendering="crispEdges"/><rect fill="#282a36" x="134.2" y="465.1" width="195.2" height="24.65" shape-rendering="crispEdges"/><rect fill="#282a36" x="329.4" y="465.1" width="36.6" height="24.65" shape-rendering="crispEdges"/><rect fill="#282a36" x="366" y="465.1" width="158.6" height="24.65" shape-rendering="crispEdges"/><rect fill="#282a36" x="524.6" y="465.1" width="36.6" height="24.65" shape-rendering="crispEdges"/><rect fill="#282a36" x="561.2" y="465.1" width="61" height="24.65" shape-rendering="crispEdges"/><rect fill="#282a36" x="622.2" y="465.1" width="36.6" height="24.65" shape-rendering="crispEdges"/><rect fill="#282a36" x="658.8" y="465.1" width="97.6" height="24.65" shape-rendering="crispEdges"/><rect fill="#282a36" x="756.4" y="465.1" width="36.6" height="24.65" shape-rendering="crispEdges"/><rect fill="#282a36" x="793" y="465.1" width="73.2" height="24.65" shape-rendering="crispEdges"/><rect fill="#282a36" x="866.2" y="465.1" width="48.8" height="24.65" shape-rendering="crispEdges"/><rect fill="#282a36" x="915" y="465.1" width="61" height="24.65" shape-rendering="crispEdges"/><rect fill="#282a36" x="976" y="465.1" width="36.6" height="24.65" shape-rendering="crispEdges"/><rect fill="#282a36" x="1012.6" y="465.1" width="61" height="24.65" shape-rendering="crispEdges"/><rect fill="#282a36" x="1073.6" y="465.1" width="36.6" height="24.65" shape-rendering="crispEdges"/><rect fill="#282a36" x="1110.2" y="465.1" width="97.6" height="24.65" shape-rendering="crispEdges"/><rect fill="#282a36" x="1207.8" y="465.1" width="341.6" height="24.65" shape-rendering="crispEdges"/>
    <g class="terminal-3281337811-matrix">
    <text class="terminal-3281337811-r1" x="0" y="20" textLength="122" clip-path="url(#terminal-3281337811-line-0)">↪&#160;lazyfeed</text><text class="terminal-3281337811-r2" x="134.2" y="20" textLength="73.2" clip-path="url(#terminal-3281337811-line-0)">v0.5.0</text><text class="terminal-3281337811-r3" x="1549.4" y="20" textLength="12.2" clip-path="url(#terminal-3281337811-line-0)">
</text><text class="terminal-3281337811-r4" x="0" y="44.4" textLength="12.2" clip-path="url(#terminal-3281337811-line-1)">╭</text><text class="terminal-3281337811-r4" x="12.2" y="44.4" textLength="12.2" clip-path="url(#terminal-3281337811-line-1)">─</text><text class="terminal-3281337811-r4" x="24.4" y="44.4" textLength="85.4" clip-path="url(#terminal-3281337811-line-1)">&#160;feeds&#160;</text><text class="terminal-3281337811-r4" x="109.8" y="44.4" textLength="183" clip-path="url(#terminal-3281337811-line-1)">───────────────</text><text class="terminal-3281337811-r4" x="292.8" y="44.4" textLength="12.2" clip-path="url(#terminal-3281337811-line-1)">╮</text><text class="terminal-3281337811-r1" x="305" y="44.4" textLength="12.2" clip-path="url(#terminal-3281337811-line-1)">╭</text><text class="terminal-3281337811-r1" x="317.2" y="44.4" textLength="12.2" clip-path="url(#terminal-3281337811-line-1)">─</text><text class="terminal-3281337811-r1" x="329.4" y="44.4" textLength="85.4" clip-path="url(#terminal-3281337811-line-1)">&#160;items&#160;</text><text class="terminal-3281337811-r1" x="414.8" y="44.4" textLength="1122.4" clip-path="url(#terminal-3281337811-line-1)">────────────────────────────────────────────────────────────────────────────────────────────</text><text class="terminal-3281337811-r1" x="1537.2" y="44.4" textLength="12.2" clip-path="url(#terminal-3281337811-line-1)">╮</text><text class="terminal-3281337811-r3" x="1549.4" y="44.4" textLength="12.2" clip-path="url(#terminal-3281337811-line-1)">
</text><text class="terminal-3281337811-r4" x="0" y="68.8" textLength="12.2" clip-path="url(#terminal-3281337811-line-2)">│</text><text class="terminal-3281337811-r5" x="12.2" y="68.8" textLength="24.4" clip-path="url(#terminal-3281337811-line-2)">25</text><text class="terminal-3281337811-r5" x="36.6" y="68.8" textLength="170.8" clip-path="url(#terminal-3281337811-line-2)">&#160;37signals&#160;Dev</text><text class="terminal-3281337811-r4" x="292.8" y="68.8" textLength="12.2" clip-path="url(#terminal-3281337811-line-2)">│</text><text class="terminal-3281337811-r1" x="305" y="68.8" textLength="12.2" clip-path="url(#terminal-3281337811-line-2)">│</text><text class="terminal-3281337811-r7" x="317.2" y="68.8" textLength="36.6" clip-path="url(#terminal-3281337811-line-2)">&#160;&#160;</text><text class="terminal-3281337811-r8" x="353.8" y="68.8" textLength="61" clip-path="url(#terminal-3281337811-line-2)">About</text><text class="terminal-3281337811-r7" x="414.8" y="68.8" textLength="24.4" clip-path="url(#terminal-3281337811-line-2)">&#160;(</text><text class="terminal-3281337811-r9" x="439.2" y="68.8" textLength="402.6" clip-path="url(#terminal-3281337811-line-2)">https://www.mattlayman.com/about/</text><text class="terminal-3281337811-r7" x="841.8" y="68.8" textLength="695.4" clip-path="url(#terminal-3281337811-line-2)">)&#160;&#160;&#160;&#160;&#160;&#160;&#160;&#160;&#160;&#160;&#160;&#160;&#160;&#160;&#160;&#160;&#160;&#160;&#160;&#160;&#160;&#160;&#160;&#160;&#160;&#160;&#160;&#160;&#160;&#160;&#160;&#160;&#160;&#160;&#160;&#160;&#160;&#160;&#160;&#160;&#160;&#160;&#160;&#160;&#160;&#160;&#160;&#160;&#160;&#160;&#160;&#160;&#160;&#160;&#160;&#160;</text><text class="terminal-3281337811-r1" x="1537.2" y="68.8" textLength="12.2" clip-path="url(#terminal-3281337811-line-2)">│</text><text class="terminal-3281337811-r3" x="1549.4" y="68.8" textLength="12.2" clip-path="url(#terminal-3281337811-line-2)">
</text><text class="terminal-3281337811-r4" x="0" y="93.2" textLength="12.2" clip-path="url(#terminal-3281337811-line-3)">│</text><text class="terminal-3281337811-r5" x="12.2" y="93.2" textLength="24.4" clip-path="url(#terminal-3281337811-line-3)">73</text><text class="terminal-3281337811-r5" x="36.6" y="93.2" textLength="244" clip-path="url(#terminal-3281337811-line-3)">&#160;&lt;/&gt;&#160;htmx&#160;-&#160;high&#160;pow</text><text class="terminal-3281337811-r4" x="292.8" y="93.2" textLength="12.2" clip-path="url(#terminal-3281337811-line-3)">│</text><text class="terminal-3281337811-r1" x="305" y="93.2" textLength="12.2" clip-path="url(#terminal-3281337811-line-3)">│</text><text class="terminal-3281337811-r7" x="317.2" y="93.2" textLength="36.6" clip-path="url(#terminal-3281337811-line-3)">&#160;&#160;</text><text class="terminal-3281337811-r10" x="353.8" y="93.2" textLength="390.4" clip-path="url(#terminal-3281337811-line-3)">The&#160;Ruby&#160;19x&#160;Web&#160;Servers&#160;Booklet</text><text class="terminal-3281337811-r7" x="744.2" y="93.2" textLength="24.4" clip-path="url(#terminal-3281337811-line-3)">&#160;(</text><text class="terminal-3281337811-r9" x="768.6" y="93.2" textLength="768.6" clip-path="url(#terminal-3281337811-line-3)">https://oldmoe.blog/2009/10/07/the-ruby-19x-web-servers-booklet</text><text class="terminal-3281337811-r1" x="1537.2" y="93.2" textLength="12.2" clip-path="url(#terminal-3281337811-line-3)">│</text><text class="terminal-3281337811-r3" x="1549.4" y="93.2" textLength="12.2" clip-path="url(#terminal-3281337811-line-3)">
</text><text class="terminal-3281337811-r4" x="0" y="117.6" textLength="12.2" clip-path="url(#terminal-3281337811-line-4)">│</text><text class="terminal-3281337811-r5" x="12.2" y="117.6" textLength="24.4" clip-path="url(#terminal-3281337811-line-4)">18</text><text class="terminal-3281337811-r5" x="36.6" y="117.6" textLength="244" clip-path="url(#terminal-3281337811-line-4)">&#160;A&#160;List&#160;Apart:&#160;The&#160;F</text><text class="terminal-3281337811-r4" x="292.8" y="117.6" textLength="12.2" clip-path="url(#terminal-3281337811-line-4)">│</text><text class="terminal-3281337811-r1" x="305" y="117.6" textLength="12.2" clip-path="url(#terminal-3281337811-line-4)">│</text><text class="terminal-3281337811-r7" x="317.2" y="117.6" textLength="36.6" clip-path="url(#terminal-3281337811-line-4)">&#160;&#160;</text><text class="terminal-3281337811-r10" x="353.8" y="117.6" textLength="524.6" clip-path="url(#terminal-3281337811-line-4)">Use&#160;Your&#160;Singletons&#160;Wisely:&#160;Ten&#160;Years&#160;Later</text><text class="terminal-3281337811-r7" x="878.4" y="117.6" textLength="24.4" clip-path="url(#terminal-3281337811-line-4)">&#160;(</text><text class="terminal-3281337811-r9" x="902.8" y="117.6" textLength="634.4" clip-path="url(#terminal-3281337811-line-4)">https://blog.thecodewhisperer.com/permalink/use-your</text><text class="terminal-3281337811-r1" x="1537.2" y="117.6" textLength="12.2" clip-path="url(#terminal-3281337811-line-4)">│</text><text class="terminal-3281337811-r3" x="1549.4" y="117.6" textLength="12.2" clip-path="url(#terminal-3281337811-line-4)">
</text><text class="terminal-3281337811-r4" x="0" y="142" textLength="12.2" clip-path="url(#terminal-3281337811-line-5)">│</text><text class="terminal-3281337811-r5" x="12.2" y="142" textLength="24.4" clip-path="url(#terminal-3281337811-line-5)">10</text><text class="terminal-3281337811-r5" x="36.6" y="142" textLength="158.6" clip-path="url(#terminal-3281337811-line-5)">&#160;Adam&#160;Johnson</text><text class="terminal-3281337811-r11" x="280.6" y="142" textLength="12.2" clip-path="url(#terminal-3281337811-line-5)">▇</text><text class="terminal-3281337811-r4" x="292.8" y="142" textLength="12.2" clip-path="url(#terminal-3281337811-line-5)">│</text><text class="terminal-3281337811-r1" x="305" y="142" textLength="12.2" clip-path="url(#terminal-3281337811-line-5)">│</text><text class="terminal-3281337811-r12" x="317.2" y="142" textLength="646.6" clip-path="url(#terminal-3281337811-line-5)">&#160;&#160;Sharing&#160;your&#160;PythonAnywhere&#160;consoles&#160;with&#160;anyone&#160;(</text><text class="terminal-3281337811-r13" x="963.8" y="142" textLength="427" clip-path="url(#terminal-3281337811-line-5)">https://blog.pythonanywhere.com/11/</text><text class="terminal-3281337811-r12" x="1390.8" y="142" textLength="146.4" clip-path="url(#terminal-3281337811-line-5)">)&#160;&#160;&#160;&#160;&#160;&#160;&#160;&#160;&#160;&#160;&#160;</text><text class="terminal-3281337811-r1" x="1537.2" y="142" textLength="12.2" clip-path="url(#terminal-3281337811-line-5)">│</text><text class="terminal-3281337811-r3" x="1549.4" y="142" textLength="12.2" clip-path="url(#terminal-3281337811-line-5)">
</text><text class="terminal-3281337811-r4" x="0" y="166.4" textLength="12.2" clip-path="url(#terminal-3281337811-line-6)">│</text><text class="terminal-3281337811-r5" x="12.2" y="166.4" textLength="24.4" clip-path="url(#terminal-3281337811-line-6)">10</text><text class="terminal-3281337811-r5" x="36.6" y="166.4" textLength="183" clip-path="url(#terminal-3281337811-line-6)">&#160;Adrian&#160;Roselli</text><text class="terminal-3281337811-r4" x="292.8" y="166.4" textLength="12.2" clip-path="url(#terminal-3281337811-line-6)">│</text><text class="terminal-3281337811-r1" x="305" y="166.4" textLength="12.2" clip-path="url(#terminal-3281337811-line-6)">│</text><text class="terminal-3281337811-r1" x="1537.2" y="166.4" textLength="12.2" clip-path="url(#terminal-3281337811-line-6)">│</text><text class="terminal-3281337811-r3" x="1549.4" y="166.4" textLength="12.2" clip-path="url(#terminal-3281337811-line-6)">
</text><text class="terminal-3281337811-r4" x="0" y="190.8" textLength="12.2" clip-path="url(#terminal-3281337811-line-7)">│</text><text class="terminal-3281337811-r5" x="12.2" y="190.8" textLength="24.4" clip-path="url(#terminal-3281337811-line-7)">57</text><text class="terminal-3281337811-r5" x="36.6" y="190.8" textLength="195.2" clip-path="url(#terminal-3281337811-line-7)">&#160;Alex&#160;Molas&#160;Blog</text><text class="terminal-3281337811-r4" x="292.8" y="190.8" textLength="12.2" clip-path="url(#terminal-3281337811-line-7)">│</text><text class="terminal-3281337811-r1" x="305" y="190.8" textLength="12.2" clip-path="url(#terminal-3281337811-line-7)">│</text><text class="terminal-3281337811-r1" x="1537.2" y="190.8" textLength="12.2" clip-path="url(#terminal-3281337811-line-7)">│</text><text class="terminal-3281337811-r3" x="1549.4" y="190.8" textLength="12.2" clip-path="url(#terminal-3281337811-line-7)">
</text><text class="terminal-3281337811-r4" x="0" y="215.2" textLength="12.2" clip-path="url(#terminal-3281337811-line-8)">│</text><text class="terminal-3281337811-r5" x="12.2" y="215.2" textLength="24.4" clip-path="url(#terminal-3281337811-line-8)">55</text><text class="terminal-3281337811-r5" x="36.6" y="215.2" textLength="244" clip-path="url(#terminal-3281337811-line-8)">&#160;Andrew&#160;Quinn&#x27;s&#160;TILs</text><text class="terminal-3281337811-r4" x="292.8" y="215.2" textLength="12.2" clip-path="url(#terminal-3281337811-line-8)">│</text><text class="terminal-3281337811-r1" x="305" y="215.2" textLength="12.2" clip-path="url(#terminal-3281337811-line-8)">│</text><text class="terminal-3281337811-r1" x="1537.2" y="215.2" textLength="12.2" clip-path="url(#terminal-3281337811-line-8)">│</text><text class="terminal-3281337811-r3" x="1549.4" y="215.2" textLength="12.2" clip-path="url(#terminal-3281337811-line-8)">
</text><text class="terminal-3281337811-r4" x="0" y="239.6" textLength="12.2" clip-path="url(#terminal-3281337811-line-9)">│</text><text class="terminal-3281337811-r5" x="12.2" y="239.6" textLength="24.4" clip-path="url(#terminal-3281337811-line-9)">10</text><text class="terminal-3281337811-r5" x="36.6" y="239.6" textLength="183" clip-path="url(#terminal-3281337811-line-9)">&#160;Anton&#160;Zhiyanov</text><text class="terminal-3281337811-r4" x="292.8" y="239.6" textLength="12.2" clip-path="url(#terminal-3281337811-line-9)">│</text><text class="terminal-3281337811-r1" x="305" y="239.6" textLength="12.2" clip-path="url(#terminal-3281337811-line-9)">│</text><text class="terminal-3281337811-r1" x="1537.2" y="239.6" textLength="12.2" clip-path="url(#terminal-3281337811-line-9)">│</text><text class="terminal-3281337811-r3" x="1549.4" y="239.6" textLength="12.2" clip-path="url(#terminal-3281337811-line-9)">
</text><text class="terminal-3281337811-r4" x="0" y="264" textLength="12.2" clip-path="url(#terminal-3281337811-line-10)">│</text><text class="terminal-3281337811-r5" x="12.2" y="264" textLength="24.4" clip-path="url(#terminal-3281337811-line-10)">50</text><text class="terminal-3281337811-r5" x="36.6" y="264" textLength="146.4" clip-path="url(#terminal-3281337811-line-10)">&#160;Anže’s&#160;Blog</text><text class="terminal-3281337811-r4" x="292.8" y="264" textLength="12.2" clip-path="url(#terminal-3281337811-line-10)">│</text><text class="terminal-3281337811-r1" x="305" y="264" textLength="12.2" clip-path="url(#terminal-3281337811-line-10)">│</text><text class="terminal-3281337811-r1" x="1537.2" y="264" textLength="12.2" clip-path="url(#terminal-3281337811-line-10)">│</text><text class="terminal-3281337811-r3" x="1549.4" y="264" textLength="12.2" clip-path="url(#terminal-3281337811-line-10)">
</text><text class="terminal-3281337811-r4" x="0" y="288.4" textLength="12.2" clip-path="url(#terminal-3281337811-line-11)">│</text><text class="terminal-3281337811-r5" x="12.2" y="288.4" textLength="24.4" clip-path="url(#terminal-3281337811-line-11)">20</text><text class="terminal-3281337811-r5" x="36.6" y="288.4" textLength="244" clip-path="url(#terminal-3281337811-line-11)">&#160;Ars&#160;Technica&#160;-&#160;All&#160;</text><text class="terminal-3281337811-r4" x="292.8" y="288.4" textLength="12.2" clip-path="url(#terminal-3281337811-line-11)">│</text><text class="terminal-3281337811-r1" x="305" y="288.4" textLength="12.2" clip-path="url(#terminal-3281337811-line-11)">│</text><text class="terminal-3281337811-r1" x="1537.2" y="288.4" textLength="12.2" clip-path="url(#terminal-3281337811-line-11)">│</text><text class="terminal-3281337811-r3" x="1549.4" y="288.4" textLength="12.2" clip-path="url(#terminal-3281337811-line-11)">
</text><text class="terminal-3281337811-r4" x="0" y="312.8" textLength="12.2" clip-path="url(#terminal-3281337811-line-12)">│</text><text class="terminal-3281337811-r5" x="12.2" y="312.8" textLength="24.4" clip-path="url(#terminal-3281337811-line-12)">40</text><text class="terminal-3281337811-r5" x="36.6" y="312.8" textLength="244" clip-path="url(#terminal-3281337811-line-12)">&#160;Articles&#160;on&#160;Smashin</text><text class="terminal-3281337811-r4" x="292.8" y="312.8" textLength="12.2" clip-path="url(#terminal-3281337811-line-12)">│</text><text class="terminal-3281337811-r1" x="305" y="312.8" textLength="12.2" clip-path="url(#terminal-3281337811-line-12)">│</text><text class="terminal-3281337811-r1" x="1537.2" y="312.8" textLength="12.2" clip-path="url(#terminal-3281337811-line-12)">│</text><text class="terminal-3281337811-r3" x="1549.4" y="312.8" textLength="12.2" clip-path="url(#terminal-3281337811-line-12)">
</text><text class="terminal-3281337811-r4" x="0" y="337.2" textLength="12.2" clip-path="url(#terminal-3281337811-line-13)">│</text><text class="terminal-3281337811-r5" x="12.2" y="337.2" textLength="36.6" clip-path="url(#terminal-3281337811-line-13)">100</text><text class="terminal-3281337811-r5" x="48.8" y="337.2" textLength="109.8" clip-path="url(#terminal-3281337811-line-13)">&#160;Asterisk</text><text class="terminal-3281337811-r4" x="292.8" y="337.2" textLength="12.2" clip-path="url(#terminal-3281337811-line-13)">│</text><text class="terminal-3281337811-r1" x="305" y="337.2" textLength="12.2" clip-path="url(#terminal-3281337811-line-13)">│</text><text class="terminal-3281337811-r1" x="1537.2" y="337.2" textLength="12.2" clip-path="url(#terminal-3281337811-line-13)">│</text><text class="terminal-3281337811-r3" x="1549.4" y="337.2" textLength="12.2" clip-path="url(#terminal-3281337811-line-13)">
</text><text class="terminal-3281337811-r4" x="0" y="361.6" textLength="12.2" clip-path="url(#terminal-3281337811-line-14)">│</text><text class="terminal-3281337811-r5" x="12.2" y="361.6" textLength="24.4" clip-path="url(#terminal-3281337811-line-14)">10</text><text class="terminal-3281337811-r5" x="36.6" y="361.6" textLength="244" clip-path="url(#terminal-3281337811-line-14)">&#160;Awesome&#160;Python&#160;Week</text><text class="terminal-3281337811-r4" x="292.8" y="361.6" textLength="12.2" clip-path="url(#terminal-3281337811-line-14)">│</text><text class="terminal-3281337811-r1" x="305" y="361.6" textLength="12.2" clip-path="url(#terminal-3281337811-line-14)">│</text><text class="terminal-3281337811-r1" x="1537.2" y="361.6" textLength="12.2" clip-path="url(#terminal-3281337811-line-14)">│</text><text class="terminal-3281337811-r3" x="1549.4" y="361.6" textLength="12.2" clip-path="url(#terminal-3281337811-line-14)">
</text><text class="terminal-3281337811-r4" x="0" y="386" textLength="12.2" clip-path="url(#terminal-3281337811-line-15)">│</text><text class="terminal-3281337811-r5" x="12.2" y="386" textLength="36.6" clip-path="url(#terminal-3281337811-line-15)">261</text><text class="terminal-3281337811-r5" x="48.8" y="386" textLength="207.4" clip-path="url(#terminal-3281337811-line-15)">&#160;CSS&#160;In&#160;Real&#160;Life</text><text class="terminal-3281337811-r4" x="292.8" y="386" textLength="12.2" clip-path="url(#terminal-3281337811-line-15)">│</text><text class="terminal-3281337811-r1" x="305" y="386" textLength="12.2" clip-path="url(#terminal-3281337811-line-15)">│</text><text class="terminal-3281337811-r1" x="1537.2" y="386" textLength="12.2" clip-path="url(#terminal-3281337811-line-15)">│</text><text class="terminal-3281337811-r3" x="1549.4" y="386" textLength="12.2" clip-path="url(#terminal-3281337811-line-15)">
</text><text class="terminal-3281337811-r4" x="0" y="410.4" textLength="12.2" clip-path="url(#terminal-3281337811-line-16)">│</text><text class="terminal-3281337811-r5" x="12.2" y="410.4" textLength="36.6" clip-path="url(#terminal-3281337811-line-16)">191</text><text class="terminal-3281337811-r5" x="48.8" y="410.4" textLength="207.4" clip-path="url(#terminal-3281337811-line-16)">&#160;Cassidy&#160;Williams</text><text class="terminal-3281337811-r4" x="292.8" y="410.4" textLength="12.2" clip-path="url(#terminal-3281337811-line-16)">│</text><text class="terminal-3281337811-r1" x="305" y="410.4" textLength="12.2" clip-path="url(#terminal-3281337811-line-16)">│</text><text class="terminal-3281337811-r1" x="1537.2" y="410.4" textLength="12.2" clip-path="url(#terminal-3281337811-line-16)">│</text><text class="terminal-3281337811-r3" x="1549.4" y="410.4" textLength="12.2" clip-path="url(#terminal-3281337811-line-16)">
</text><text class="terminal-3281337811-r4" x="0" y="434.8" textLength="12.2" clip-path="url(#terminal-3281337811-line-17)">│</text><text class="terminal-3281337811-r5" x="12.2" y="434.8" textLength="24.4" clip-path="url(#terminal-3281337811-line-17)">12</text><text class="terminal-3281337811-r5" x="36.6" y="434.8" textLength="158.6" clip-path="url(#terminal-3281337811-line-17)">&#160;Chris&#160;Coyier</text><text class="terminal-3281337811-r4" x="292.8" y="434.8" textLength="12.2" clip-path="url(#terminal-3281337811-line-17)">│</text><text class="terminal-3281337811-r1" x="305" y="434.8" textLength="12.2" clip-path="url(#terminal-3281337811-line-17)">│</text><text class="terminal-3281337811-r1" x="1537.2" y="434.8" textLength="12.2" clip-path="url(#terminal-3281337811-line-17)">│</text><text class="terminal-3281337811-r3" x="1549.4" y="434.8" textLength="12.2" clip-path="url(#terminal-3281337811-line-17)">
</text><text class="terminal-3281337811-r4" x="0" y="459.2" textLength="12.2" clip-path="url(#terminal-3281337811-line-18)">╰</text><text class="terminal-3281337811-r4" x="12.2" y="459.2" textLength="280.6" clip-path="url(#terminal-3281337811-line-18)">───────────────────────</text><text class="terminal-3281337811-r4" x="292.8" y="459.2" textLength="12.2" clip-path="url(#terminal-3281337811-line-18)">╯</text><text class="terminal-3281337811-r1" x="305" y="459.2" textLength="12.2" clip-path="url(#terminal-3281337811-line-18)">╰</text><text class="terminal-3281337811-r1" x="317.2" y="459.2" textLength="1171.2" clip-path="url(#terminal-3281337811-line-18)">────────────────────────────────────────────────────────────────────────────────────────────────</text><text class="terminal-3281337811-r1" x="1488.4" y="459.2" textLength="36.6" clip-path="url(#terminal-3281337811-line-18)">&#160;4&#160;</text><text class="terminal-3281337811-r1" x="1525" y="459.2" textLength="12.2" clip-path="url(#terminal-3281337811-line-18)">─</text><text class="terminal-3281337811-r1" x="1537.2" y="459.2" textLength="12.2" clip-path="url(#terminal-3281337811-line-18)">╯</text><text class="terminal-3281337811-r3" x="1549.4" y="459.2" textLength="12.2" clip-path="url(#terminal-3281337811-line-18)">
</text><text class="terminal-3281337811-r14" x="0" y="483.6" textLength="36.6" clip-path="url(#terminal-3281337811-line-19)">&#160;o&#160;</text><text class="terminal-3281337811-r7" x="36.6" y="483.6" textLength="61" clip-path="url(#terminal-3281337811-line-19)">open&#160;</text><text class="terminal-3281337811-r14" x="97.6" y="483.6" textLength="36.6" clip-path="url(#terminal-3281337811-line-19)">&#160;O&#160;</text><text class="terminal-3281337811-r7" x="134.2" y="483.6" textLength="195.2" clip-path="url(#terminal-3281337811-line-19)">open&#160;in&#160;browser&#160;</text><text class="terminal-3281337811-r14" x="329.4" y="483.6" textLength="36.6" clip-path="url(#terminal-3281337811-line-19)">&#160;m&#160;</text><text class="terminal-3281337811-r7" x="366" y="483.6" textLength="158.6" clip-path="url(#terminal-3281337811-line-19)">mark&#160;as&#160;read&#160;</text><text class="terminal-3281337811-r14" x="524.6" y="483.6" textLength="36.6" clip-path="url(#terminal-3281337811-line-19)">&#160;s&#160;</text><text class="terminal-3281337811-r7" x="561.2" y="483.6" textLength="61" clip-path="url(#terminal-3281337811-line-19)">save&#160;</text><text class="terminal-3281337811-r14" x="622.2" y="483.6" textLength="36.6" clip-path="url(#terminal-3281337811-line-19)">&#160;a&#160;</text><text class="terminal-3281337811-r7" x="658.8" y="483.6" textLength="97.6" clip-path="url(#terminal-3281337811-line-19)">pending&#160;</text><text class="terminal-3281337811-r14" x="756.4" y="483.6" textLength="36.6" clip-path="url(#terminal-3281337811-line-19)">&#160;l&#160;</text><text class="terminal-3281337811-r7" x="793" y="483.6" textLength="73.2" clip-path="url(#terminal-3281337811-line-19)">saved&#160;</text><text class="terminal-3281337811-r14" x="866.2" y="483.6" textLength="48.8" clip-path="url(#terminal-3281337811-line-19)">&#160;^c&#160;</text><text class="terminal-3281337811-r7" x="915" y="483.6" textLength="61" clip-path="url(#terminal-3281337811-line-19)">quit&#160;</text><text class="terminal-3281337811-r14" x="976" y="483.6" textLength="36.6" clip-path="url(#terminal-3281337811-line-19)">&#160;?&#160;</text><text class="terminal-3281337811-r7" x="1012.6" y="483.6" textLength="61" clip-path="url(#terminal-3281337811-line-19)">help&#160;</text><text class="terminal-3281337811-r14" x="1073.6" y="483.6" textLength="36.6" clip-path="url(#terminal-3281337811-line-19)">&#160;R&#160;</text><text class="terminal-3281337811-r7" x="1110.2" y="483.6" textLength="97.6" clip-path="url(#terminal-3281337811-line-19)">refresh&#160;</text>
    </g>
    </g>
</svg>
